<svg width="659" height="492" viewBox="0 0 659 492" fill="none" xmlns="http://www.w3.org/2000/svg">
<path d="M635.407 6H23.5928C13.8766 6 6 14.1614 6 24.229V361.529C6 371.597 13.8766 379.758 23.5928 379.758H635.407C645.123 379.758 653 371.597 653 361.529V24.229C653 14.1614 645.123 6 635.407 6Z" stroke="#66FFDA" stroke-width="11.2785" stroke-linecap="square" stroke-linejoin="round"/>
<path d="M370 255L562 253" stroke="#233554" stroke-width="5.63923" stroke-linecap="round"/>
<path d="M107 254.716L305.269 254.716" stroke="#233554" stroke-width="5.63923" stroke-linecap="round"/>
<path d="M338.71 255.104C338.71 260.088 334.81 264.129 330 264.129C325.19 264.129 321.29 260.088 321.29 255.104C321.29 250.12 325.19 246.079 330 246.079C334.81 246.079 338.71 250.12 338.71 255.104Z" fill="#233554" stroke="#0A192F" stroke-width="50" stroke-linecap="round" stroke-linejoin="round"/>
<path d="M371 380H288V468H371V380Z" fill="#66FFDA"/>
<path d="M522.777 461.556H136.223V491.33H522.777V461.556Z" fill="#66FFDA"/>
<path d="M355.382 319.677H303.618V335.718H355.382V319.677Z" fill="#233554" stroke="#444444" stroke-width="1.12785"/>
<path d="M240.969 348.25H418.031" stroke="#233554" stroke-width="3.38354" stroke-linecap="round"/>
<path d="M255.153 356.772H403.847" stroke="#233554" stroke-width="3.10066" stroke-linecap="round"/>
<path d="M181.095 193.064H142.359L133.143 221H121.335L155.031 120.2H169.143L203.127 221H190.599L181.095 193.064ZM146.103 182.696H177.783L162.951 135.32H161.223L146.103 182.696Z" fill="#66FFDA"/>
<path d="M208.831 120.2H232.159V179.816H240.079L268.447 149H281.983L250.159 183.128L276.367 211.352H285.727V221H270.895L240.079 188.456H232.159V221H221.071V129.848H208.831V120.2Z" fill="#66FFDA"/>
<path d="M292.295 120.2H314.759V157.928H315.479C318.455 154.568 321.911 151.976 325.847 150.152C329.783 148.232 334.679 147.272 340.535 147.272C345.143 147.272 349.127 147.752 352.487 148.712C355.943 149.672 358.727 151.352 360.839 153.752C363.047 156.152 364.679 159.464 365.735 163.688C366.791 167.816 367.319 173.096 367.319 179.528V221H356.087V181.688C356.087 177.56 355.847 173.96 355.367 170.888C354.887 167.816 353.927 165.272 352.487 163.256C351.143 161.144 349.271 159.56 346.871 158.504C344.471 157.448 341.399 156.92 337.655 156.92C335.063 156.92 332.519 157.4 330.023 158.36C327.527 159.224 325.223 160.472 323.111 162.104C321.095 163.64 319.319 165.56 317.783 167.864C316.343 170.072 315.335 172.52 314.759 175.208V221H303.671V129.848H292.295V120.2Z" fill="#66FFDA"/>
<path d="M393.182 221V211.352H418.239V158.648H393.182V149H429.758V211.352H454.239V221H393.182ZM414.351 128.552C414.351 125.96 415.215 123.752 416.943 121.928C418.671 120.008 420.879 119.048 423.567 119.048C426.351 119.048 428.655 120.008 430.479 121.928C432.399 123.752 433.359 125.96 433.359 128.552C433.359 131.048 432.399 133.16 430.479 134.888C428.655 136.616 426.351 137.48 423.567 137.48C420.879 137.48 418.671 136.616 416.943 134.888C415.215 133.16 414.351 131.048 414.351 128.552Z" fill="#66FFDA"/>
<path d="M540.582 211.928C538.854 213.464 536.79 214.904 534.39 216.248C532.086 217.592 529.542 218.744 526.758 219.704C523.974 220.664 521.046 221.384 517.974 221.864C514.998 222.44 511.974 222.728 508.902 222.728C503.142 222.728 498.054 221.864 493.638 220.136C489.222 218.312 485.526 215.768 482.55 212.504C479.574 209.144 477.318 205.16 475.782 200.552C474.246 195.944 473.478 190.76 473.478 185C473.478 178.952 474.294 173.576 475.926 168.872C477.654 164.168 480.102 160.232 483.27 157.064C486.438 153.896 490.278 151.496 494.79 149.864C499.302 148.136 504.342 147.272 509.91 147.272C513.942 147.272 517.926 147.8 521.862 148.856C525.798 149.912 529.254 151.928 532.23 154.904C535.302 157.784 537.654 161.816 539.286 167C540.918 172.088 541.494 178.712 541.014 186.872H485.286C485.286 195.512 487.59 201.992 492.198 206.312C496.902 210.536 503.142 212.648 510.918 212.648C513.51 212.648 516.054 212.36 518.55 211.784C521.142 211.112 523.59 210.344 525.894 209.48C528.198 208.616 530.214 207.656 531.942 206.6C533.766 205.544 535.158 204.584 536.118 203.72L540.582 211.928ZM510.198 156.776C507.03 156.776 504.006 157.112 501.126 157.784C498.342 158.456 495.846 159.608 493.638 161.24C491.526 162.776 489.75 164.84 488.31 167.432C486.966 169.928 486.102 173.048 485.718 176.792H530.502C530.022 170.456 527.958 165.56 524.31 162.104C520.758 158.552 516.054 156.776 510.198 156.776Z" fill="#66FFDA"/>
</svg>
